<svg width="31" height="31" viewBox="0 0 31 31" fill="none" xmlns="http://www.w3.org/2000/svg">
<path d="M14.8617 0.109741C15.0081 -0.0366373 15.2465 -0.0365018 15.393 0.109741L17.7787 2.49646C17.9252 2.64291 17.9252 2.88029 17.7787 3.02673C17.6323 3.17285 17.3948 3.17307 17.2485 3.02673L15.5024 1.28064V14.2074L24.644 5.0697H22.1742C21.9673 5.06956 21.7993 4.9016 21.7992 4.6947C21.7995 4.4879 21.9674 4.32082 22.1742 4.32068L25.5492 4.3197C25.7562 4.31971 25.925 4.48783 25.9252 4.6947L25.9242 8.0697C25.924 8.2766 25.7562 8.4447 25.5492 8.4447C25.3425 8.44441 25.1744 8.27642 25.1742 8.0697V5.59998L16.0238 14.7484H28.975L27.228 13.0023C27.0818 12.856 27.082 12.6185 27.228 12.472C27.3744 12.3256 27.6128 12.3256 27.7592 12.472L30.1449 14.8578C30.2913 15.0042 30.2914 15.2426 30.1449 15.389L27.7592 17.7748C27.6128 17.9211 27.3744 17.9211 27.228 17.7748C27.0819 17.6284 27.0818 17.3909 27.228 17.2445L28.975 15.4984H16.0238L25.1752 24.6469V22.1771C25.1754 21.9702 25.3432 21.8021 25.5502 21.8021C25.757 21.8024 25.9251 21.9703 25.9252 22.1771V25.5511C25.9252 25.7581 25.7572 25.9269 25.5502 25.9271L22.1742 25.9261C21.9673 25.9259 21.7992 25.7581 21.7992 25.5511C21.7995 25.3444 21.9675 25.1774 22.1742 25.1771H24.644L15.5024 16.0365V28.9662L17.2485 27.2201C17.3948 27.0737 17.6323 27.0738 17.7787 27.2201C17.9252 27.3665 17.9252 27.6039 17.7787 27.7504L15.393 30.1371C15.2465 30.2833 15.0081 30.2835 14.8617 30.1371L12.476 27.7504C12.3298 27.604 12.3298 27.3665 12.476 27.2201C12.6224 27.0737 12.8598 27.0738 13.0063 27.2201L14.7524 28.9662V16.017L5.59221 25.1771H8.06194C8.26888 25.1772 8.43668 25.3443 8.43694 25.5511C8.43693 25.7582 8.26904 25.9261 8.06194 25.9261L4.68694 25.9271C4.4798 25.9271 4.31096 25.7582 4.31096 25.5511L4.31194 22.1771C4.3121 21.9702 4.4799 21.8021 4.68694 21.8021C4.89391 21.8022 5.06178 21.9702 5.06194 22.1771V24.6469L14.2123 15.4984H1.28069L3.02678 17.2445C3.17315 17.391 3.1732 17.6284 3.02678 17.7748C2.88035 17.9211 2.64292 17.9211 2.49651 17.7748L0.109787 15.389C-0.0366254 15.2426 -0.036557 15.0042 0.109787 14.8578L2.49651 12.472C2.64295 12.3256 2.88033 12.3256 3.02678 12.472C3.17315 12.6185 3.1732 12.8559 3.02678 13.0023L1.28069 14.7484H14.2123L5.06194 5.59998V8.0697C5.06173 8.27653 4.89385 8.44459 4.68694 8.4447C4.47994 8.44468 4.31214 8.27659 4.31194 8.0697L4.31096 4.6947C4.3112 4.48783 4.47995 4.31971 4.68694 4.3197L8.06194 4.32068C8.26894 4.32068 8.43671 4.48781 8.43694 4.6947C8.43683 4.90169 8.269 5.0697 8.06194 5.0697H5.59221L14.7524 14.2269V1.28064L13.0063 3.02673C12.8599 3.17295 12.6224 3.17298 12.476 3.02673C12.3298 2.88033 12.3298 2.64285 12.476 2.49646L14.8617 0.109741Z" fill="#3A5FC8"/>
</svg>
